<svg width="16" height="16" viewBox="0 0 16 16" fill="none" xmlns="http://www.w3.org/2000/svg">
<path d="M10.24 3.52001H11.84C12.0167 3.52001 12.16 3.37665 12.16 3.20001V1.04417C12.16 0.876495 12.0311 0.736975 11.864 0.725135C11.3549 0.688975 10.3603 0.640015 9.64515 0.640015C7.68003 0.640015 6.40003 1.81761 6.40003 3.95777V6.08001H4.16003C3.98339 6.08001 3.84003 6.22337 3.84003 6.40001V8.64001C3.84003 8.81665 3.98339 8.96001 4.16003 8.96001H6.40003V15.04C6.40003 15.2167 6.54339 15.36 6.72003 15.36H8.96003C9.13667 15.36 9.28003 15.2167 9.28003 15.04V8.96001H11.5911C11.7543 8.96001 11.8912 8.83745 11.9091 8.67521L12.1581 6.43521C12.1792 6.24577 12.0307 6.08001 11.84 6.08001H9.28003V4.48001C9.28003 3.94977 9.70979 3.52001 10.24 3.52001Z" fill="white"/>
</svg>
