<svg width="252" height="142" viewBox="0 0 252 142" fill="none" xmlns="http://www.w3.org/2000/svg">
<line x1="197.354" y1="0.353553" x2="56.3536" y2="141.354" stroke="black"/>
<rect x="7" y="46" width="239" height="49" fill="white"/>
<path d="M95.748 58.3008H100.67C102.686 58.3008 104.232 58.8164 105.311 59.8477C106.4 60.8789 106.945 62.4023 106.945 64.418C106.945 67.8984 105.674 69.8906 103.131 70.3945V70.5352C104.596 70.8398 105.686 71.4961 106.4 72.5039C107.115 73.5 107.473 74.8945 107.473 76.6875C107.473 78.9844 106.963 80.7773 105.943 82.0664C104.924 83.3555 103.494 84 101.654 84H95.748V58.3008ZM97.4707 69.7441H100.705C102.311 69.7441 103.453 69.3047 104.133 68.4258C104.824 67.5352 105.17 66.1875 105.17 64.3828C105.17 62.9297 104.789 61.8164 104.027 61.043C103.277 60.2695 102.158 59.8828 100.67 59.8828H97.4707V69.7441ZM97.4707 71.3262V82.418H101.426C104.262 82.418 105.68 80.4961 105.68 76.6523C105.68 74.9414 105.264 73.6289 104.432 72.7148C103.6 71.7891 102.434 71.3262 100.934 71.3262H97.4707ZM111.709 84V58.3008H113.432V82.3477H120.674V84H111.709ZM138.182 71.1152C138.182 75.3691 137.543 78.6387 136.266 80.9238C135 83.209 133.166 84.3516 130.764 84.3516C128.338 84.3516 126.498 83.2031 125.244 80.9062C123.99 78.5977 123.363 75.3223 123.363 71.0801C123.363 66.6504 123.984 63.3516 125.227 61.1836C126.469 59.0156 128.332 57.9316 130.816 57.9316C133.207 57.9316 135.029 59.0742 136.283 61.3594C137.549 63.6328 138.182 66.8848 138.182 71.1152ZM125.156 71.1152C125.156 74.9355 125.631 77.8242 126.58 79.7812C127.541 81.7266 128.936 82.6992 130.764 82.6992C132.604 82.6992 133.998 81.7324 134.947 79.7988C135.908 77.8652 136.389 74.9707 136.389 71.1152C136.389 67.3066 135.92 64.4355 134.982 62.502C134.045 60.5566 132.656 59.584 130.816 59.584C128.93 59.584 127.512 60.5684 126.562 62.5371C125.625 64.4941 125.156 67.3535 125.156 71.1152ZM151.418 71.0449H157.043V83.209C155.086 83.9707 153.053 84.3516 150.943 84.3516C148.143 84.3516 145.969 83.1797 144.422 80.8359C142.875 78.4922 142.102 75.2402 142.102 71.0801C142.102 66.9082 142.898 63.6738 144.492 61.377C146.098 59.0801 148.348 57.9316 151.242 57.9316C153.188 57.9316 155.021 58.4824 156.744 59.584L155.918 61.0957C154.301 60.0645 152.742 59.5488 151.242 59.5488C148.84 59.5488 147.018 60.5391 145.775 62.5195C144.545 64.4883 143.93 67.3535 143.93 71.1152C143.93 74.7949 144.551 77.6484 145.793 79.6758C147.047 81.6914 148.816 82.6992 151.102 82.6992C152.742 82.6992 154.143 82.4824 155.303 82.0488V72.6973H151.418V71.0449Z" fill="black"/>
<path d="M130.72 39.3433C130.833 39.4564 130.98 39.4225 131.161 39.2415C131.353 39.0491 131.58 38.6079 131.84 37.9178C132.089 37.2163 132.281 36.5714 132.417 35.9831L132.621 35.1006C132.655 35.112 132.705 35.1516 132.773 35.2194C132.841 35.2873 132.847 35.3948 132.79 35.5419C132.304 38.1101 131.761 39.694 131.161 40.2936C130.867 40.5878 130.578 40.5935 130.296 40.3106C130.013 40.0278 129.509 38.8342 128.785 36.7298C128.072 34.6142 127.422 32.5607 126.834 30.5695L125.951 27.6166L125.968 28.0748C125.968 28.3916 126.257 33.4545 126.834 43.2635C126.743 43.4898 126.641 43.6595 126.528 43.7726C126.426 43.8744 126.324 43.8744 126.223 43.7726C126.121 43.6708 126.042 43.4898 125.985 43.2295C125.929 42.9693 125.832 42.5903 125.697 42.0925C125.572 41.5834 125.306 40.65 124.899 39.2924C124.503 37.9234 124.096 36.6676 123.677 35.5249C123.27 34.3709 122.766 33.1999 122.167 32.012C121.578 30.8128 121.001 29.9303 120.436 29.3646C119.497 28.4256 118.62 28.3633 117.805 29.1779C116.855 30.1283 116.114 31.4011 115.582 32.9963C115.062 34.5802 114.818 36.0567 114.852 37.4256C114.875 38.7833 115.141 39.7166 115.65 40.2258C116.261 40.8367 117.059 40.65 118.043 39.6657C119.027 38.6814 119.655 37.4652 119.927 36.0171C120.198 34.5463 120.175 33.2905 119.859 32.2496C119.847 32.1251 119.859 32.0459 119.893 32.012C119.927 31.9781 120.017 32.0346 120.164 32.1817C120.3 32.3175 120.419 32.7078 120.521 33.3527C120.611 33.9862 120.639 34.7047 120.605 35.5079C120.571 36.3112 120.39 37.1597 120.062 38.0535C119.734 38.9473 119.282 39.6827 118.705 40.2597C117.268 41.6965 116.131 41.9964 115.294 41.1591C114.841 40.7066 114.553 39.9655 114.428 38.936C114.292 37.9178 114.315 36.809 114.496 35.6098C114.688 34.3992 115.079 33.149 115.667 31.8593C116.267 30.5582 117.013 29.4608 117.907 28.567C118.959 27.5148 120.034 27.5374 121.131 28.6349C122.025 29.5286 122.896 31.0786 123.745 33.2848C124.605 35.4797 125.238 37.4482 125.646 39.1906L126.257 41.804C126.279 41.7361 126.223 40.6161 126.087 38.4438C125.657 31.5651 125.442 27.7071 125.442 26.8699C125.521 26.7907 125.657 26.7228 125.849 26.6663C126.042 26.5871 126.172 26.5814 126.24 26.6493C126.308 26.7172 126.358 26.802 126.392 26.9039C128.949 34.8687 130.392 39.0152 130.72 39.3433ZM131.611 28.9491C131.78 28.7794 131.95 28.7794 132.12 28.9491C132.289 29.1188 132.386 29.3733 132.408 29.7128C132.419 30.0409 132.329 30.3011 132.137 30.4934C131.978 30.6518 131.792 30.6235 131.577 30.4086C131.35 30.1823 131.265 29.9164 131.322 29.6109C131.379 29.3055 131.475 29.0848 131.611 28.9491ZM132.255 32.7844C132.221 32.6374 132.255 32.5129 132.357 32.4111C132.459 32.3093 132.612 32.2583 132.815 32.2583C132.861 32.3036 132.889 32.479 132.9 32.7844C132.912 33.0899 133.019 33.6952 133.223 34.6003C133.415 35.4941 133.602 36.0315 133.783 36.2125C133.896 36.3256 134.049 36.3087 134.241 36.1616C134.467 35.9353 134.711 35.4771 134.971 34.787C135.22 34.0855 135.412 33.4406 135.548 32.8523L135.751 31.9698C135.785 31.9812 135.836 32.0208 135.904 32.0886C135.972 32.1565 135.978 32.264 135.921 32.4111C135.435 34.9793 134.892 36.5632 134.292 37.1628C133.998 37.457 133.704 37.457 133.409 37.1628C133.115 36.8687 132.866 36.303 132.663 35.4658C132.459 34.6059 132.323 33.7122 132.255 32.7844ZM138.63 31.3315C138.947 30.5621 139.224 29.674 139.461 28.6671L139.58 28.141C139.614 28.1523 139.665 28.1919 139.733 28.2598C139.801 28.3277 139.806 28.4351 139.75 28.5822C139.558 29.5891 139.314 30.5452 139.02 31.4503C138.726 32.3553 138.324 33.0625 137.815 33.5716C137.17 34.2165 136.616 34.307 136.152 33.8431C135.598 33.2887 135.36 32.2818 135.439 30.8223C135.519 29.3402 135.937 28.2202 136.695 27.4622C137.012 27.1454 137.306 27.1228 137.578 27.3943C137.736 27.5527 137.793 27.8921 137.747 28.4125C137.68 29.1366 137.595 29.5495 137.493 29.6514C137.391 29.7532 137.295 29.7589 137.204 29.6683C137.17 29.6344 137.159 29.5778 137.17 29.4986C137.216 29.3176 137.238 29.0913 137.238 28.8198C137.238 28.5257 137.187 28.3277 137.086 28.2258C136.927 28.0675 136.774 28.0618 136.627 28.2089C136.311 28.5257 136.135 29.278 136.101 30.466C136.056 31.6426 136.209 32.4063 136.559 32.757C136.955 33.153 137.368 33.136 137.798 32.7061C138.081 32.4232 138.324 32.0442 138.528 31.569L138.63 31.3315ZM140.727 29.7433C140.829 29.6414 140.948 28.6289 141.084 26.7055C141.219 24.7596 141.378 23.6961 141.559 23.5151C141.74 23.334 141.909 23.3227 142.068 23.4811C142.192 23.6056 142.272 23.911 142.305 24.3975C142.339 24.884 142.396 25.3931 142.475 25.9249C142.566 26.4453 142.73 26.8243 142.967 27.0619C143.092 27.1864 143.244 27.1581 143.426 26.9771C143.618 26.7847 143.844 26.3435 144.104 25.6533C144.353 24.9519 144.546 24.307 144.681 23.7187L144.885 22.8362C144.919 22.8475 144.97 22.8871 145.038 22.955C145.106 23.0229 145.111 23.1304 145.055 23.2775C144.568 25.8457 144.025 27.4296 143.426 28.0292C143.131 28.3234 142.826 28.3121 142.509 27.9953C142.294 27.7803 142.113 27.4409 141.966 26.9771C141.819 26.5132 141.723 26.1002 141.678 25.7382L141.593 25.2121C141.468 26.1059 141.378 27.0676 141.321 28.0971C141.253 29.1153 141.197 29.8847 141.151 30.4051C141.118 30.9368 141.044 31.2593 140.931 31.3724C140.818 31.4856 140.676 31.4573 140.507 31.2876C140.348 31.1292 140.048 30.2976 139.607 28.7929C139.166 27.2882 138.73 25.6307 138.3 23.8205C137.87 21.9877 137.576 20.2341 137.418 18.5597C137.271 16.8739 137.395 15.833 137.791 15.4371C137.961 15.2674 138.159 15.2278 138.385 15.3183C138.476 15.3409 138.561 15.3918 138.64 15.471C139.42 16.2517 139.749 18.9217 139.624 23.4811C139.613 24.3523 139.579 25.1782 139.522 25.9588C140.111 28.2668 140.512 29.5283 140.727 29.7433ZM138.266 16.2177C138.153 16.1046 138.068 16.0763 138.012 16.1329C137.786 16.3591 137.808 17.3321 138.08 19.0518C138.351 20.7715 138.742 22.7005 139.251 24.8388C139.477 19.9739 139.149 17.1002 138.266 16.2177Z" fill="black"/>
</svg>
