<svg width="112" height="78" viewBox="0 0 112 78" fill="none" xmlns="http://www.w3.org/2000/svg">
<line x1="93.3536" y1="7.35355" x2="23.3536" y2="77.3536" stroke="black"/>
<rect x="5" y="30" width="103" height="26" fill="white"/>
<path d="M35.832 33.8672H39.1133C40.457 33.8672 41.4883 34.2109 42.207 34.8984C42.9336 35.5859 43.2969 36.6016 43.2969 37.9453C43.2969 40.2656 42.4492 41.5938 40.7539 41.9297V42.0234C41.7305 42.2266 42.457 42.6641 42.9336 43.3359C43.4102 44 43.6484 44.9297 43.6484 46.125C43.6484 47.6562 43.3086 48.8516 42.6289 49.7109C41.9492 50.5703 40.9961 51 39.7695 51H35.832V33.8672ZM36.9805 41.4961H39.1367C40.207 41.4961 40.9688 41.2031 41.4219 40.6172C41.8828 40.0234 42.1133 39.125 42.1133 37.9219C42.1133 36.9531 41.8594 36.2109 41.3516 35.6953C40.8516 35.1797 40.1055 34.9219 39.1133 34.9219H36.9805V41.4961ZM36.9805 42.5508V49.9453H39.6172C41.5078 49.9453 42.4531 48.6641 42.4531 46.1016C42.4531 44.9609 42.1758 44.0859 41.6211 43.4766C41.0664 42.8594 40.2891 42.5508 39.2891 42.5508H36.9805ZM46.4727 51V33.8672H47.6211V49.8984H52.4492V51H46.4727ZM64.1211 42.4102C64.1211 45.2461 63.6953 47.4258 62.8438 48.9492C62 50.4727 60.7773 51.2344 59.1758 51.2344C57.5586 51.2344 56.332 50.4688 55.4961 48.9375C54.6602 47.3984 54.2422 45.2148 54.2422 42.3867C54.2422 39.4336 54.6562 37.2344 55.4844 35.7891C56.3125 34.3438 57.5547 33.6211 59.2109 33.6211C60.8047 33.6211 62.0195 34.3828 62.8555 35.9062C63.6992 37.4219 64.1211 39.5898 64.1211 42.4102ZM55.4375 42.4102C55.4375 44.957 55.7539 46.8828 56.3867 48.1875C57.0273 49.4844 57.957 50.1328 59.1758 50.1328C60.4023 50.1328 61.332 49.4883 61.9648 48.1992C62.6055 46.9102 62.9258 44.9805 62.9258 42.4102C62.9258 39.8711 62.6133 37.957 61.9883 36.668C61.3633 35.3711 60.4375 34.7227 59.2109 34.7227C57.9531 34.7227 57.0078 35.3789 56.375 36.6914C55.75 37.9961 55.4375 39.9023 55.4375 42.4102ZM72.9453 42.3633H76.6953V50.4727C75.3906 50.9805 74.0352 51.2344 72.6289 51.2344C70.7617 51.2344 69.3125 50.4531 68.2812 48.8906C67.25 47.3281 66.7344 45.1602 66.7344 42.3867C66.7344 39.6055 67.2656 37.4492 68.3281 35.918C69.3984 34.3867 70.8984 33.6211 72.8281 33.6211C74.125 33.6211 75.3477 33.9883 76.4961 34.7227L75.9453 35.7305C74.8672 35.043 73.8281 34.6992 72.8281 34.6992C71.2266 34.6992 70.0117 35.3594 69.1836 36.6797C68.3633 37.9922 67.9531 39.9023 67.9531 42.4102C67.9531 44.8633 68.3672 46.7656 69.1953 48.1172C70.0312 49.4609 71.2109 50.1328 72.7344 50.1328C73.8281 50.1328 74.7617 49.9883 75.5352 49.6992V43.4648H72.9453V42.3633Z" fill="black"/>
<path d="M54.913 24.0992C55.0073 24.1935 55.1298 24.1652 55.2807 24.0143C55.441 23.8541 55.6295 23.4864 55.8464 22.9113C56.0538 22.3267 56.2141 21.7893 56.3272 21.2991L56.4969 20.5637C56.5252 20.5731 56.5676 20.6061 56.6242 20.6627C56.6808 20.7192 56.6855 20.8088 56.6383 20.9314C56.2329 23.0715 55.7804 24.3915 55.2807 24.8912C55.0356 25.1363 54.7951 25.141 54.5594 24.9053C54.3237 24.6696 53.9042 23.6749 53.3008 21.9213C52.7068 20.1583 52.1647 18.4471 51.6744 16.7877L50.9391 14.327L50.9532 14.7088C50.9532 14.9728 51.1936 19.1919 51.6745 27.366C51.599 27.5546 51.5142 27.696 51.4199 27.7903C51.335 27.8751 51.2502 27.8751 51.1653 27.7903C51.0805 27.7054 51.0145 27.5546 50.9673 27.3377C50.9202 27.1209 50.8401 26.8051 50.7269 26.3902C50.6232 25.966 50.4017 25.1881 50.0622 24.0568C49.7323 22.916 49.3929 21.8695 49.044 20.9172C48.7046 19.9556 48.2851 18.9797 47.7854 17.9898C47.2951 16.9904 46.8143 16.255 46.3429 15.7836C45.5603 15.0011 44.8297 14.9492 44.1508 15.6281C43.3589 16.42 42.7413 17.4807 42.2982 18.81C41.8645 20.13 41.6618 21.3603 41.6901 22.5011C41.709 23.6325 41.9305 24.4103 42.3548 24.8346C42.8639 25.3437 43.5286 25.1881 44.3488 24.3679C45.1691 23.5477 45.6923 22.5341 45.9186 21.3273C46.1449 20.1017 46.126 19.0552 45.862 18.1878C45.8526 18.0841 45.862 18.0181 45.8903 17.9898C45.9186 17.9615 45.994 18.0087 46.1166 18.1312C46.2297 18.2444 46.3287 18.5696 46.4136 19.107C46.489 19.635 46.5126 20.2337 46.4843 20.9031C46.456 21.5725 46.3052 22.2796 46.0317 23.0244C45.7583 23.7692 45.3812 24.382 44.9004 24.8629C43.703 26.0602 42.7555 26.3101 42.0578 25.6124C41.6807 25.2353 41.4403 24.6177 41.3365 23.7598C41.2234 22.9113 41.2423 21.9873 41.3931 20.9879C41.5534 19.9791 41.8787 18.9373 42.3689 17.8625C42.8686 16.7783 43.4909 15.8638 44.2357 15.1189C45.1125 14.2421 46.0082 14.261 46.9227 15.1755C47.6675 15.9203 48.3935 17.212 49.1006 19.0505C49.8171 20.8795 50.3451 22.52 50.6845 23.9719L51.1936 26.1498C51.2125 26.0932 51.1653 25.1599 51.0522 23.3497C50.6939 17.6174 50.5148 14.4024 50.5148 13.7047C50.5808 13.6387 50.6939 13.5822 50.8542 13.535C51.0145 13.469 51.1229 13.4643 51.1795 13.5209C51.236 13.5774 51.2785 13.6482 51.3068 13.733C53.4375 20.3704 54.6396 23.8258 54.913 24.0992ZM55.6552 15.4374C55.7967 15.2959 55.9381 15.2959 56.0795 15.4374C56.2209 15.5788 56.3011 15.7909 56.3199 16.0738C56.3293 16.3472 56.2539 16.564 56.0936 16.7243C55.9617 16.8563 55.8061 16.8327 55.627 16.6536C55.4384 16.465 55.3677 16.2435 55.4148 15.9889C55.462 15.7343 55.5421 15.5505 55.6552 15.4374ZM56.1926 18.6335C56.1644 18.5109 56.1926 18.4072 56.2775 18.3224C56.3623 18.2375 56.4896 18.1951 56.6593 18.1951C56.697 18.2328 56.7206 18.3789 56.73 18.6335C56.7395 18.888 56.829 19.3924 56.9987 20.1467C57.159 20.8915 57.3146 21.3393 57.4654 21.4902C57.5597 21.5845 57.687 21.5703 57.8473 21.4478C58.0358 21.2592 58.2385 20.8774 58.4554 20.3023C58.6628 19.7177 58.8231 19.1803 58.9362 18.6901L59.1059 17.9547C59.1342 17.9641 59.1766 17.9971 59.2332 18.0537C59.2898 18.1102 59.2945 18.1998 59.2473 18.3224C58.8419 20.4625 58.3894 21.7825 57.8897 22.2822C57.6446 22.5273 57.3994 22.5273 57.1543 22.2822C56.9092 22.037 56.7018 21.5656 56.5321 20.8679C56.3623 20.1514 56.2492 19.4066 56.1926 18.6335ZM61.5047 17.4227C61.7687 16.7816 61.9996 16.0415 62.1976 15.2024L62.2966 14.764C62.3249 14.7734 62.3673 14.8064 62.4239 14.8629C62.4805 14.9195 62.4852 15.0091 62.4381 15.1316C62.2778 15.9707 62.0751 16.7674 61.8299 17.5217C61.5848 18.2759 61.2501 18.8652 60.8258 19.2894C60.2884 19.8268 59.8265 19.9023 59.4399 19.5157C58.9779 19.0537 58.78 18.2146 58.8459 16.9984C58.9119 15.7633 59.2608 14.8299 59.8925 14.1983C60.1565 13.9343 60.4016 13.9154 60.6279 14.1417C60.7599 14.2737 60.807 14.5565 60.7693 14.9902C60.7127 15.5936 60.642 15.9377 60.5571 16.0226C60.4723 16.1075 60.3922 16.1122 60.3167 16.0367C60.2884 16.0085 60.279 15.9613 60.2884 15.8953C60.3262 15.7445 60.345 15.5559 60.345 15.3296C60.345 15.0845 60.3026 14.9195 60.2177 14.8347C60.0857 14.7027 59.9585 14.698 59.8359 14.8205C59.5719 15.0845 59.4258 15.7115 59.3975 16.7014C59.3598 17.6819 59.4871 18.3183 59.7793 18.6106C60.1093 18.9406 60.4534 18.9265 60.8117 18.5682C61.0474 18.3325 61.2501 18.0166 61.4198 17.6207L61.5047 17.4227ZM63.2524 16.0992C63.3373 16.0143 63.4363 15.1705 63.5494 13.5677C63.6626 11.9461 63.7946 11.0599 63.9454 10.909C64.0963 10.7582 64.2377 10.7487 64.3697 10.8807C64.4734 10.9844 64.5394 11.239 64.5677 11.6444C64.5959 12.0498 64.6431 12.4741 64.7091 12.9172C64.7845 13.3509 64.9212 13.6667 65.1192 13.8647C65.2229 13.9684 65.3502 13.9448 65.501 13.794C65.6613 13.6337 65.8499 13.266 66.0667 12.6909C66.2741 12.1064 66.4344 11.569 66.5476 11.0787L66.7173 10.3433C66.7455 10.3527 66.788 10.3857 66.8445 10.4423C66.9011 10.4989 66.9058 10.5884 66.8587 10.711C66.4533 12.8512 66.0007 14.1711 65.501 14.6708C65.2559 14.9159 65.0013 14.9065 64.7374 14.6425C64.5582 14.4634 64.4074 14.1806 64.2848 13.794C64.1622 13.4074 64.0821 13.0633 64.0444 12.7616L63.9737 12.3232C63.87 13.068 63.7946 13.8694 63.7474 14.7274C63.6908 15.5759 63.6437 16.217 63.606 16.6507C63.5777 17.0938 63.5164 17.3625 63.4221 17.4568C63.3279 17.5511 63.21 17.5275 63.0686 17.3861C62.9366 17.2541 62.6868 16.5611 62.3191 15.3072C61.9514 14.0533 61.5884 12.6721 61.2301 11.1636C60.8718 9.63621 60.6267 8.17486 60.4947 6.7795C60.3722 5.37471 60.4759 4.50733 60.8058 4.17735C60.9473 4.03593 61.1123 4.00293 61.3008 4.07835C61.3762 4.09721 61.447 4.13963 61.513 4.20563C62.1635 4.85617 62.4369 7.0812 62.3332 10.8807C62.3238 11.6067 62.2955 12.2949 62.2483 12.9455C62.7386 14.8688 63.0733 15.92 63.2524 16.0992ZM61.2018 4.82789C61.1075 4.7336 61.0368 4.71003 60.9897 4.75717C60.8011 4.94574 60.82 5.75655 61.0463 7.18962C61.2725 8.62269 61.5978 10.2302 62.0221 12.0121C62.2106 7.95801 61.9372 5.56328 61.2018 4.82789Z" fill="black"/>
</svg>
