<svg width="16" height="16" viewBox="0 0 16 16" fill="none" xmlns="http://www.w3.org/2000/svg">
<path d="M5.11999 0.959991C2.82559 0.959991 0.959991 2.82559 0.959991 5.11999V10.88C0.959991 13.1744 2.82559 15.04 5.11999 15.04H10.88C13.1744 15.04 15.04 13.1744 15.04 10.88V5.11999C15.04 2.82559 13.1744 0.959991 10.88 0.959991H5.11999ZM11.84 3.51999C12.192 3.51999 12.48 3.80799 12.48 4.15999C12.48 4.51199 12.192 4.79999 11.84 4.79999C11.488 4.79999 11.2 4.51199 11.2 4.15999C11.2 3.80799 11.488 3.51999 11.84 3.51999ZM7.99999 4.47999C9.94239 4.47999 11.52 6.05759 11.52 7.99999C11.52 9.94239 9.94239 11.52 7.99999 11.52C6.05759 11.52 4.47999 9.94239 4.47999 7.99999C4.47999 6.05759 6.05759 4.47999 7.99999 4.47999ZM7.99999 5.11999C6.41279 5.11999 5.11999 6.41279 5.11999 7.99999C5.11999 9.58719 6.41279 10.88 7.99999 10.88C9.58719 10.88 10.88 9.58719 10.88 7.99999C10.88 6.41279 9.58719 5.11999 7.99999 5.11999Z" fill="white"/>
</svg>
