<svg width="112" height="78" viewBox="0 0 112 78" fill="none" xmlns="http://www.w3.org/2000/svg">
<line x1="93.3536" y1="7.35355" x2="23.3536" y2="77.3536" stroke="black"/>
<rect x="5" y="30" width="103" height="26" fill="white"/>
<path d="M12.7344 33.8672H16.0156C17.3594 33.8672 18.3906 34.2109 19.1094 34.8984C19.8359 35.5859 20.1992 36.6016 20.1992 37.9453C20.1992 40.2656 19.3516 41.5938 17.6562 41.9297V42.0234C18.6328 42.2266 19.3594 42.6641 19.8359 43.3359C20.3125 44 20.5508 44.9297 20.5508 46.125C20.5508 47.6562 20.2109 48.8516 19.5312 49.7109C18.8516 50.5703 17.8984 51 16.6719 51H12.7344V33.8672ZM13.8828 41.4961H16.0391C17.1094 41.4961 17.8711 41.2031 18.3242 40.6172C18.7852 40.0234 19.0156 39.125 19.0156 37.9219C19.0156 36.9531 18.7617 36.2109 18.2539 35.6953C17.7539 35.1797 17.0078 34.9219 16.0156 34.9219H13.8828V41.4961ZM13.8828 42.5508V49.9453H16.5195C18.4102 49.9453 19.3555 48.6641 19.3555 46.1016C19.3555 44.9609 19.0781 44.0859 18.5234 43.4766C17.9688 42.8594 17.1914 42.5508 16.1914 42.5508H13.8828ZM23.375 51V33.8672H24.5234V51H23.375ZM37.5781 42.4102C37.5781 45.2461 37.1523 47.4258 36.3008 48.9492C35.457 50.4727 34.2344 51.2344 32.6328 51.2344C31.0156 51.2344 29.7891 50.4688 28.9531 48.9375C28.1172 47.3984 27.6992 45.2148 27.6992 42.3867C27.6992 39.4336 28.1133 37.2344 28.9414 35.7891C29.7695 34.3438 31.0117 33.6211 32.668 33.6211C34.2617 33.6211 35.4766 34.3828 36.3125 35.9062C37.1562 37.4219 37.5781 39.5898 37.5781 42.4102ZM28.8945 42.4102C28.8945 44.957 29.2109 46.8828 29.8438 48.1875C30.4844 49.4844 31.4141 50.1328 32.6328 50.1328C33.8594 50.1328 34.7891 49.4883 35.4219 48.1992C36.0625 46.9102 36.3828 44.9805 36.3828 42.4102C36.3828 39.8711 36.0703 37.957 35.4453 36.668C34.8203 35.3711 33.8945 34.7227 32.668 34.7227C31.4102 34.7227 30.4648 35.3789 29.832 36.6914C29.207 37.9961 28.8945 39.9023 28.8945 42.4102ZM46.4023 42.3633H50.1523V50.4727C48.8477 50.9805 47.4922 51.2344 46.0859 51.2344C44.2188 51.2344 42.7695 50.4531 41.7383 48.8906C40.707 47.3281 40.1914 45.1602 40.1914 42.3867C40.1914 39.6055 40.7227 37.4492 41.7852 35.918C42.8555 34.3867 44.3555 33.6211 46.2852 33.6211C47.582 33.6211 48.8047 33.9883 49.9531 34.7227L49.4023 35.7305C48.3242 35.043 47.2852 34.6992 46.2852 34.6992C44.6836 34.6992 43.4688 35.3594 42.6406 36.6797C41.8203 37.9922 41.4102 39.9023 41.4102 42.4102C41.4102 44.8633 41.8242 46.7656 42.6523 48.1172C43.4883 49.4609 44.668 50.1328 46.1914 50.1328C47.2852 50.1328 48.2188 49.9883 48.9922 49.6992V43.4648H46.4023V42.3633ZM54.5234 43.5117V51H53.375V33.8672H55.7188C57.3906 33.8672 58.6133 34.2617 59.3867 35.0508C60.1602 35.8398 60.5469 37.0195 60.5469 38.5898C60.5469 39.7773 60.3359 40.7539 59.9141 41.5195C59.4922 42.2852 58.7852 42.8594 57.793 43.2422L61.1914 51H59.9023L56.7031 43.5117H54.5234ZM54.5234 42.457H56.1289C57.168 42.457 57.9688 42.1367 58.5312 41.4961C59.0938 40.8555 59.375 39.9023 59.375 38.6367C59.375 37.3477 59.0859 36.418 58.5078 35.8477C57.9375 35.2773 57.0352 34.9922 55.8008 34.9922H54.5234V42.457ZM70.0508 51L68.5391 44.7891H64.3789L62.8906 51H61.6953L65.8203 33.8672H67.0039L71.2227 51H70.0508ZM68.2695 43.6289L66.7578 37.2422C66.6016 36.5234 66.4805 35.8438 66.3945 35.2031C66.3242 35.8828 66.2148 36.5625 66.0664 37.2422L64.6016 43.6289H68.2695ZM80.2812 38.7891C80.2812 40.5547 79.875 41.8516 79.0625 42.6797C78.2578 43.5078 77.0625 43.9219 75.4766 43.9219H74.2578V51H73.1094V33.8672H75.4531C77.125 33.8672 78.3477 34.2617 79.1211 35.0508C79.8945 35.8398 80.2812 37.0859 80.2812 38.7891ZM74.2578 42.8672H75.4062C76.75 42.8672 77.7031 42.5508 78.2656 41.918C78.8281 41.2852 79.1094 40.2422 79.1094 38.7891C79.1094 37.4062 78.8164 36.418 78.2305 35.8242C77.6523 35.2227 76.7539 34.9219 75.5352 34.9219H74.2578V42.8672ZM91.2266 51H90.0781V42.5742H84.1016V51H82.9531V33.8672H84.1016V41.4727H90.0781V33.8672H91.2266V51ZM97.1328 42.7148L99.9219 33.8672H101.141L97.6836 44.3086V51H96.5352V44.3086L93.1016 33.8672H94.3203L97.1328 42.7148Z" fill="black"/>
<path d="M54.913 24.0992C55.0073 24.1935 55.1298 24.1652 55.2807 24.0143C55.441 23.8541 55.6295 23.4864 55.8464 22.9113C56.0538 22.3267 56.2141 21.7893 56.3272 21.2991L56.4969 20.5637C56.5252 20.5731 56.5676 20.6061 56.6242 20.6627C56.6808 20.7192 56.6855 20.8088 56.6383 20.9314C56.2329 23.0715 55.7804 24.3915 55.2807 24.8912C55.0356 25.1363 54.7951 25.141 54.5594 24.9053C54.3237 24.6696 53.9042 23.6749 53.3008 21.9213C52.7068 20.1583 52.1647 18.4471 51.6744 16.7877L50.9391 14.327L50.9532 14.7088C50.9532 14.9728 51.1936 19.1919 51.6745 27.366C51.599 27.5546 51.5142 27.696 51.4199 27.7903C51.335 27.8751 51.2502 27.8751 51.1653 27.7903C51.0805 27.7054 51.0145 27.5546 50.9673 27.3377C50.9202 27.1209 50.8401 26.8051 50.7269 26.3902C50.6232 25.966 50.4017 25.1881 50.0622 24.0568C49.7323 22.916 49.3929 21.8695 49.044 20.9172C48.7046 19.9556 48.2851 18.9797 47.7854 17.9898C47.2951 16.9904 46.8143 16.255 46.3429 15.7836C45.5603 15.0011 44.8297 14.9492 44.1508 15.6281C43.3589 16.42 42.7413 17.4807 42.2982 18.81C41.8645 20.13 41.6618 21.3603 41.6901 22.5011C41.709 23.6325 41.9305 24.4103 42.3548 24.8346C42.8639 25.3437 43.5286 25.1881 44.3488 24.3679C45.1691 23.5477 45.6923 22.5341 45.9186 21.3273C46.1449 20.1017 46.126 19.0552 45.862 18.1878C45.8526 18.0841 45.862 18.0181 45.8903 17.9898C45.9186 17.9615 45.994 18.0087 46.1166 18.1312C46.2297 18.2444 46.3287 18.5696 46.4136 19.107C46.489 19.635 46.5126 20.2337 46.4843 20.9031C46.456 21.5725 46.3052 22.2796 46.0317 23.0244C45.7583 23.7692 45.3812 24.382 44.9004 24.8629C43.703 26.0602 42.7555 26.3101 42.0578 25.6124C41.6807 25.2353 41.4403 24.6177 41.3365 23.7598C41.2234 22.9113 41.2423 21.9873 41.3931 20.9879C41.5534 19.9791 41.8787 18.9373 42.3689 17.8625C42.8686 16.7783 43.4909 15.8638 44.2357 15.1189C45.1125 14.2421 46.0082 14.261 46.9227 15.1755C47.6675 15.9203 48.3935 17.212 49.1006 19.0505C49.8171 20.8795 50.3451 22.52 50.6845 23.9719L51.1936 26.1498C51.2125 26.0932 51.1653 25.1599 51.0522 23.3497C50.6939 17.6174 50.5148 14.4024 50.5148 13.7047C50.5808 13.6387 50.6939 13.5822 50.8542 13.535C51.0145 13.469 51.1229 13.4643 51.1795 13.5209C51.236 13.5774 51.2785 13.6482 51.3068 13.733C53.4375 20.3704 54.6396 23.8258 54.913 24.0992ZM55.6552 15.4374C55.7967 15.2959 55.9381 15.2959 56.0795 15.4374C56.2209 15.5788 56.3011 15.7909 56.3199 16.0738C56.3293 16.3472 56.2539 16.564 56.0936 16.7243C55.9617 16.8563 55.8061 16.8327 55.627 16.6536C55.4384 16.465 55.3677 16.2435 55.4148 15.9889C55.462 15.7343 55.5421 15.5505 55.6552 15.4374ZM56.1926 18.6335C56.1644 18.5109 56.1926 18.4072 56.2775 18.3224C56.3623 18.2375 56.4896 18.1951 56.6593 18.1951C56.697 18.2328 56.7206 18.3789 56.73 18.6335C56.7395 18.888 56.829 19.3924 56.9987 20.1467C57.159 20.8915 57.3146 21.3393 57.4654 21.4902C57.5597 21.5845 57.687 21.5703 57.8473 21.4478C58.0358 21.2592 58.2385 20.8774 58.4554 20.3023C58.6628 19.7177 58.8231 19.1803 58.9362 18.6901L59.1059 17.9547C59.1342 17.9641 59.1766 17.9971 59.2332 18.0537C59.2898 18.1102 59.2945 18.1998 59.2473 18.3224C58.8419 20.4625 58.3894 21.7825 57.8897 22.2822C57.6446 22.5273 57.3994 22.5273 57.1543 22.2822C56.9092 22.037 56.7018 21.5656 56.5321 20.8679C56.3623 20.1514 56.2492 19.4066 56.1926 18.6335ZM61.5047 17.4227C61.7687 16.7816 61.9996 16.0415 62.1976 15.2024L62.2966 14.764C62.3249 14.7734 62.3673 14.8064 62.4239 14.8629C62.4805 14.9195 62.4852 15.0091 62.4381 15.1316C62.2778 15.9707 62.0751 16.7674 61.8299 17.5217C61.5848 18.2759 61.2501 18.8652 60.8258 19.2894C60.2884 19.8268 59.8265 19.9023 59.4399 19.5157C58.9779 19.0537 58.78 18.2146 58.8459 16.9984C58.9119 15.7633 59.2608 14.8299 59.8925 14.1983C60.1565 13.9343 60.4016 13.9154 60.6279 14.1417C60.7599 14.2737 60.807 14.5565 60.7693 14.9902C60.7127 15.5936 60.642 15.9377 60.5571 16.0226C60.4723 16.1075 60.3922 16.1122 60.3167 16.0367C60.2884 16.0085 60.279 15.9613 60.2884 15.8953C60.3262 15.7445 60.345 15.5559 60.345 15.3296C60.345 15.0845 60.3026 14.9195 60.2177 14.8347C60.0857 14.7027 59.9585 14.698 59.8359 14.8205C59.5719 15.0845 59.4258 15.7115 59.3975 16.7014C59.3598 17.6819 59.4871 18.3183 59.7793 18.6106C60.1093 18.9406 60.4534 18.9265 60.8117 18.5682C61.0474 18.3325 61.2501 18.0166 61.4198 17.6207L61.5047 17.4227ZM63.2524 16.0992C63.3373 16.0143 63.4363 15.1705 63.5494 13.5677C63.6626 11.9461 63.7946 11.0599 63.9454 10.909C64.0963 10.7582 64.2377 10.7487 64.3697 10.8807C64.4734 10.9844 64.5394 11.239 64.5677 11.6444C64.5959 12.0498 64.6431 12.4741 64.7091 12.9172C64.7845 13.3509 64.9212 13.6667 65.1192 13.8647C65.2229 13.9684 65.3502 13.9448 65.501 13.794C65.6613 13.6337 65.8499 13.266 66.0667 12.6909C66.2741 12.1064 66.4344 11.569 66.5476 11.0787L66.7173 10.3433C66.7455 10.3527 66.788 10.3857 66.8445 10.4423C66.9011 10.4989 66.9058 10.5884 66.8587 10.711C66.4533 12.8512 66.0007 14.1711 65.501 14.6708C65.2559 14.9159 65.0013 14.9065 64.7374 14.6425C64.5582 14.4634 64.4074 14.1806 64.2848 13.794C64.1622 13.4074 64.0821 13.0633 64.0444 12.7616L63.9737 12.3232C63.87 13.068 63.7946 13.8694 63.7474 14.7274C63.6908 15.5759 63.6437 16.217 63.606 16.6507C63.5777 17.0938 63.5164 17.3625 63.4221 17.4568C63.3279 17.5511 63.21 17.5275 63.0686 17.3861C62.9366 17.2541 62.6868 16.5611 62.3191 15.3072C61.9514 14.0533 61.5884 12.6721 61.2301 11.1636C60.8718 9.63621 60.6267 8.17486 60.4947 6.7795C60.3722 5.37471 60.4759 4.50733 60.8058 4.17735C60.9473 4.03593 61.1123 4.00293 61.3008 4.07835C61.3762 4.09721 61.447 4.13963 61.513 4.20563C62.1635 4.85617 62.4369 7.0812 62.3332 10.8807C62.3238 11.6067 62.2955 12.2949 62.2483 12.9455C62.7386 14.8688 63.0733 15.92 63.2524 16.0992ZM61.2018 4.82789C61.1075 4.7336 61.0368 4.71003 60.9897 4.75717C60.8011 4.94574 60.82 5.75655 61.0463 7.18962C61.2725 8.62269 61.5978 10.2302 62.0221 12.0121C62.2106 7.95801 61.9372 5.56328 61.2018 4.82789Z" fill="black"/>
</svg>
