<svg width="252" height="142" viewBox="0 0 252 142" fill="none" xmlns="http://www.w3.org/2000/svg">
<line x1="197.354" y1="0.353553" x2="56.3536" y2="141.354" stroke="black"/>
<rect x="7" y="46" width="239" height="49" fill="white"/>
<path d="M61.1016 58.3008H66.0234C68.0391 58.3008 69.5859 58.8164 70.6641 59.8477C71.7539 60.8789 72.2988 62.4023 72.2988 64.418C72.2988 67.8984 71.0273 69.8906 68.4844 70.3945V70.5352C69.9492 70.8398 71.0391 71.4961 71.7539 72.5039C72.4688 73.5 72.8262 74.8945 72.8262 76.6875C72.8262 78.9844 72.3164 80.7773 71.2969 82.0664C70.2773 83.3555 68.8477 84 67.0078 84H61.1016V58.3008ZM62.8242 69.7441H66.0586C67.6641 69.7441 68.8066 69.3047 69.4863 68.4258C70.1777 67.5352 70.5234 66.1875 70.5234 64.3828C70.5234 62.9297 70.1426 61.8164 69.3809 61.043C68.6309 60.2695 67.5117 59.8828 66.0234 59.8828H62.8242V69.7441ZM62.8242 71.3262V82.418H66.7793C69.6152 82.418 71.0332 80.4961 71.0332 76.6523C71.0332 74.9414 70.6172 73.6289 69.7852 72.7148C68.9531 71.7891 67.7871 71.3262 66.2871 71.3262H62.8242ZM77.0625 84V58.3008H78.7852V84H77.0625ZM98.3672 71.1152C98.3672 75.3691 97.7285 78.6387 96.4512 80.9238C95.1855 83.209 93.3516 84.3516 90.9492 84.3516C88.5234 84.3516 86.6836 83.2031 85.4297 80.9062C84.1758 78.5977 83.5488 75.3223 83.5488 71.0801C83.5488 66.6504 84.1699 63.3516 85.4121 61.1836C86.6543 59.0156 88.5176 57.9316 91.002 57.9316C93.3926 57.9316 95.2148 59.0742 96.4688 61.3594C97.7344 63.6328 98.3672 66.8848 98.3672 71.1152ZM85.3418 71.1152C85.3418 74.9355 85.8164 77.8242 86.7656 79.7812C87.7266 81.7266 89.1211 82.6992 90.9492 82.6992C92.7891 82.6992 94.1836 81.7324 95.1328 79.7988C96.0938 77.8652 96.5742 74.9707 96.5742 71.1152C96.5742 67.3066 96.1055 64.4355 95.168 62.502C94.2305 60.5566 92.8418 59.584 91.002 59.584C89.1152 59.584 87.6973 60.5684 86.748 62.5371C85.8105 64.4941 85.3418 67.3535 85.3418 71.1152ZM111.604 71.0449H117.229V83.209C115.271 83.9707 113.238 84.3516 111.129 84.3516C108.328 84.3516 106.154 83.1797 104.607 80.8359C103.061 78.4922 102.287 75.2402 102.287 71.0801C102.287 66.9082 103.084 63.6738 104.678 61.377C106.283 59.0801 108.533 57.9316 111.428 57.9316C113.373 57.9316 115.207 58.4824 116.93 59.584L116.104 61.0957C114.486 60.0645 112.928 59.5488 111.428 59.5488C109.025 59.5488 107.203 60.5391 105.961 62.5195C104.73 64.4883 104.115 67.3535 104.115 71.1152C104.115 74.7949 104.736 77.6484 105.979 79.6758C107.232 81.6914 109.002 82.6992 111.287 82.6992C112.928 82.6992 114.328 82.4824 115.488 82.0488V72.6973H111.604V71.0449ZM123.785 72.7676V84H122.062V58.3008H125.578C128.086 58.3008 129.92 58.8926 131.08 60.0762C132.24 61.2598 132.82 63.0293 132.82 65.3848C132.82 67.166 132.504 68.6309 131.871 69.7793C131.238 70.9277 130.178 71.7891 128.689 72.3633L133.787 84H131.854L127.055 72.7676H123.785ZM123.785 71.1855H126.193C127.752 71.1855 128.953 70.7051 129.797 69.7441C130.641 68.7832 131.062 67.3535 131.062 65.4551C131.062 63.5215 130.629 62.127 129.762 61.2715C128.906 60.416 127.553 59.9883 125.701 59.9883H123.785V71.1855ZM147.076 84L144.809 74.6836H138.568L136.336 84H134.543L140.73 58.3008H142.506L148.834 84H147.076ZM144.404 72.9434L142.137 63.3633C141.902 62.2852 141.721 61.2656 141.592 60.3047C141.486 61.3242 141.322 62.3438 141.1 63.3633L138.902 72.9434H144.404ZM162.422 65.6836C162.422 68.332 161.812 70.2773 160.594 71.5195C159.387 72.7617 157.594 73.3828 155.215 73.3828H153.387V84H151.664V58.3008H155.18C157.688 58.3008 159.521 58.8926 160.682 60.0762C161.842 61.2598 162.422 63.1289 162.422 65.6836ZM153.387 71.8008H155.109C157.125 71.8008 158.555 71.3262 159.398 70.377C160.242 69.4277 160.664 67.8633 160.664 65.6836C160.664 63.6094 160.225 62.127 159.346 61.2363C158.479 60.334 157.131 59.8828 155.303 59.8828H153.387V71.8008ZM178.84 84H177.117V71.3613H168.152V84H166.43V58.3008H168.152V69.709H177.117V58.3008H178.84V84ZM187.699 71.5723L191.883 58.3008H193.711L188.525 73.9629V84H186.803V73.9629L181.652 58.3008H183.48L187.699 71.5723Z" fill="black"/>
<path d="M130.72 39.3433C130.833 39.4564 130.98 39.4225 131.161 39.2415C131.353 39.0491 131.58 38.6079 131.84 37.9178C132.089 37.2163 132.281 36.5714 132.417 35.9831L132.621 35.1006C132.655 35.112 132.705 35.1516 132.773 35.2194C132.841 35.2873 132.847 35.3948 132.79 35.5419C132.304 38.1101 131.761 39.694 131.161 40.2936C130.867 40.5878 130.578 40.5935 130.296 40.3106C130.013 40.0278 129.509 38.8342 128.785 36.7298C128.072 34.6142 127.422 32.5607 126.834 30.5695L125.951 27.6166L125.968 28.0748C125.968 28.3916 126.257 33.4545 126.834 43.2635C126.743 43.4898 126.641 43.6595 126.528 43.7726C126.426 43.8744 126.324 43.8744 126.223 43.7726C126.121 43.6708 126.042 43.4898 125.985 43.2295C125.929 42.9693 125.832 42.5903 125.697 42.0925C125.572 41.5834 125.306 40.65 124.899 39.2924C124.503 37.9234 124.096 36.6676 123.677 35.5249C123.27 34.3709 122.766 33.1999 122.167 32.012C121.578 30.8128 121.001 29.9303 120.436 29.3646C119.497 28.4256 118.62 28.3633 117.805 29.1779C116.855 30.1283 116.114 31.4011 115.582 32.9963C115.062 34.5802 114.818 36.0567 114.852 37.4256C114.875 38.7833 115.141 39.7166 115.65 40.2258C116.261 40.8367 117.059 40.65 118.043 39.6657C119.027 38.6814 119.655 37.4652 119.927 36.0171C120.198 34.5463 120.175 33.2905 119.859 32.2496C119.847 32.1251 119.859 32.0459 119.893 32.012C119.927 31.9781 120.017 32.0346 120.164 32.1817C120.3 32.3175 120.419 32.7078 120.521 33.3527C120.611 33.9862 120.639 34.7047 120.605 35.5079C120.571 36.3112 120.39 37.1597 120.062 38.0535C119.734 38.9473 119.282 39.6827 118.705 40.2597C117.268 41.6965 116.131 41.9964 115.294 41.1591C114.841 40.7066 114.553 39.9655 114.428 38.936C114.292 37.9178 114.315 36.809 114.496 35.6098C114.688 34.3992 115.079 33.149 115.667 31.8593C116.267 30.5582 117.013 29.4608 117.907 28.567C118.959 27.5148 120.034 27.5374 121.131 28.6349C122.025 29.5286 122.896 31.0786 123.745 33.2848C124.605 35.4797 125.238 37.4482 125.646 39.1906L126.257 41.804C126.279 41.7361 126.223 40.6161 126.087 38.4438C125.657 31.5651 125.442 27.7071 125.442 26.8699C125.521 26.7907 125.657 26.7228 125.849 26.6663C126.042 26.5871 126.172 26.5814 126.24 26.6493C126.308 26.7172 126.358 26.802 126.392 26.9039C128.949 34.8687 130.392 39.0152 130.72 39.3433ZM131.611 28.9491C131.78 28.7794 131.95 28.7794 132.12 28.9491C132.289 29.1188 132.386 29.3733 132.408 29.7128C132.419 30.0409 132.329 30.3011 132.137 30.4934C131.978 30.6518 131.792 30.6235 131.577 30.4086C131.35 30.1823 131.265 29.9164 131.322 29.6109C131.379 29.3055 131.475 29.0848 131.611 28.9491ZM132.255 32.7844C132.221 32.6374 132.255 32.5129 132.357 32.4111C132.459 32.3093 132.612 32.2583 132.815 32.2583C132.861 32.3036 132.889 32.479 132.9 32.7844C132.912 33.0899 133.019 33.6952 133.223 34.6003C133.415 35.4941 133.602 36.0315 133.783 36.2125C133.896 36.3256 134.049 36.3087 134.241 36.1616C134.467 35.9353 134.711 35.4771 134.971 34.787C135.22 34.0855 135.412 33.4406 135.548 32.8523L135.751 31.9698C135.785 31.9812 135.836 32.0208 135.904 32.0886C135.972 32.1565 135.978 32.264 135.921 32.4111C135.435 34.9793 134.892 36.5632 134.292 37.1628C133.998 37.457 133.704 37.457 133.409 37.1628C133.115 36.8687 132.866 36.303 132.663 35.4658C132.459 34.6059 132.323 33.7122 132.255 32.7844ZM138.63 31.3315C138.947 30.5621 139.224 29.674 139.461 28.6671L139.58 28.141C139.614 28.1523 139.665 28.1919 139.733 28.2598C139.801 28.3277 139.806 28.4351 139.75 28.5822C139.558 29.5891 139.314 30.5452 139.02 31.4503C138.726 32.3553 138.324 33.0625 137.815 33.5716C137.17 34.2165 136.616 34.307 136.152 33.8431C135.598 33.2887 135.36 32.2818 135.439 30.8223C135.519 29.3402 135.937 28.2202 136.695 27.4622C137.012 27.1454 137.306 27.1228 137.578 27.3943C137.736 27.5527 137.793 27.8921 137.747 28.4125C137.68 29.1366 137.595 29.5495 137.493 29.6514C137.391 29.7532 137.295 29.7589 137.204 29.6683C137.17 29.6344 137.159 29.5778 137.17 29.4986C137.216 29.3176 137.238 29.0913 137.238 28.8198C137.238 28.5257 137.187 28.3277 137.086 28.2258C136.927 28.0675 136.774 28.0618 136.627 28.2089C136.311 28.5257 136.135 29.278 136.101 30.466C136.056 31.6426 136.209 32.4063 136.559 32.757C136.955 33.153 137.368 33.136 137.798 32.7061C138.081 32.4232 138.324 32.0442 138.528 31.569L138.63 31.3315ZM140.727 29.7433C140.829 29.6414 140.948 28.6289 141.084 26.7055C141.219 24.7596 141.378 23.6961 141.559 23.5151C141.74 23.334 141.909 23.3227 142.068 23.4811C142.192 23.6056 142.272 23.911 142.305 24.3975C142.339 24.884 142.396 25.3931 142.475 25.9249C142.566 26.4453 142.73 26.8243 142.967 27.0619C143.092 27.1864 143.244 27.1581 143.426 26.9771C143.618 26.7847 143.844 26.3435 144.104 25.6533C144.353 24.9519 144.546 24.307 144.681 23.7187L144.885 22.8362C144.919 22.8475 144.97 22.8871 145.038 22.955C145.106 23.0229 145.111 23.1304 145.055 23.2775C144.568 25.8457 144.025 27.4296 143.426 28.0292C143.131 28.3234 142.826 28.3121 142.509 27.9953C142.294 27.7803 142.113 27.4409 141.966 26.9771C141.819 26.5132 141.723 26.1002 141.678 25.7382L141.593 25.2121C141.468 26.1059 141.378 27.0676 141.321 28.0971C141.253 29.1153 141.197 29.8847 141.151 30.4051C141.118 30.9368 141.044 31.2593 140.931 31.3724C140.818 31.4856 140.676 31.4573 140.507 31.2876C140.348 31.1292 140.048 30.2976 139.607 28.7929C139.166 27.2882 138.73 25.6307 138.3 23.8205C137.87 21.9877 137.576 20.2341 137.418 18.5597C137.271 16.8739 137.395 15.833 137.791 15.4371C137.961 15.2674 138.159 15.2278 138.385 15.3183C138.476 15.3409 138.561 15.3918 138.64 15.471C139.42 16.2517 139.749 18.9217 139.624 23.4811C139.613 24.3523 139.579 25.1782 139.522 25.9588C140.111 28.2668 140.512 29.5283 140.727 29.7433ZM138.266 16.2177C138.153 16.1046 138.068 16.0763 138.012 16.1329C137.786 16.3591 137.808 17.3321 138.08 19.0518C138.351 20.7715 138.742 22.7005 139.251 24.8388C139.477 19.9739 139.149 17.1002 138.266 16.2177Z" fill="black"/>
</svg>
