<svg width="16" height="12" viewBox="0 0 16 12" fill="none" xmlns="http://www.w3.org/2000/svg">
<path d="M1.09592 0C0.805365 0.000328737 0.526804 0.115897 0.32135 0.321351C0.115897 0.526804 0.000328737 0.805365 0 1.09592V1.25845L7.172 6.7753C7.42864 6.97636 7.7452 7.08575 8.07123 7.08602C8.39726 7.08629 8.71401 6.97743 8.97099 6.77679L16 1.26009V1.09592C15.9997 0.805365 15.8841 0.526804 15.6786 0.321351C15.4732 0.115897 15.1946 0.000328737 14.9041 0H1.09592ZM0 2.18035V9.82882L4.47272 5.6208L0 2.18035ZM16 2.18884L11.6566 5.59775L16 9.81405V2.18884ZM11.0766 6.05317L9.42106 7.35222C9.03612 7.65324 8.56155 7.81684 8.0729 7.81697C7.58424 7.8171 7.10959 7.65375 6.72449 7.35294L5.05928 6.07208L0.163032 10.6786C0.261074 10.8379 0.398274 10.9695 0.561569 11.0609C0.724864 11.1522 0.908818 11.2002 1.09592 11.2004H14.9041C15.0917 11.2002 15.2762 11.152 15.4399 11.0601C15.6035 10.9683 15.7409 10.836 15.8388 10.6759L11.0766 6.05317Z" fill="white"/>
</svg>
