<svg width="102" height="54" viewBox="0 0 102 54" fill="none" xmlns="http://www.w3.org/2000/svg">
<path d="M36.2151 49.2502C36.2151 49.7169 36.5884 49.9502 37.3351 49.9502C38.1284 49.9502 39.5051 49.5069 41.4651 48.6202C43.4251 47.6869 45.1517 46.7536 46.6451 45.8202L48.8851 44.4202C48.9317 44.5136 48.9551 44.7002 48.9551 44.9802C48.9551 45.2602 48.7451 45.4936 48.3251 45.6802C42.0251 49.9736 37.6384 52.1202 35.1651 52.1202C33.9517 52.1202 33.3451 51.5369 33.3451 50.3702C33.3451 49.2036 34.7684 45.7036 37.6151 39.8702C40.5084 34.0369 43.4017 28.4602 46.2951 23.1402L50.5651 15.2302L49.6551 16.2102C49.0017 16.8636 39.1551 27.9002 20.1151 49.3202C19.4617 49.6002 18.9017 49.7402 18.4351 49.7402C18.0151 49.7402 17.8051 49.5302 17.8051 49.1102C17.8051 48.6902 18.0151 48.1536 18.4351 47.5002C18.8551 46.8469 19.4384 45.8669 20.1851 44.5602C20.9784 43.2536 22.3551 40.7802 24.3151 37.1402C26.3217 33.5002 28.0717 30.0702 29.5651 26.8502C31.1051 23.6302 32.4817 20.1769 33.6951 16.4902C34.9551 12.8036 35.5851 9.79357 35.5851 7.46024C35.5851 3.58691 33.9051 1.65024 30.5451 1.65024C26.6251 1.65024 22.4717 2.74691 18.0851 4.94024C13.7451 7.13358 10.1984 9.67691 7.44508 12.5702C4.69174 15.4169 3.31508 17.8902 3.31508 19.9902C3.31508 22.5102 5.34508 23.7702 9.40508 23.7702C13.4651 23.7702 17.2684 22.5569 20.8151 20.1302C24.4084 17.6569 26.9517 15.0202 28.4451 12.2202C28.6784 11.9402 28.8651 11.8002 29.0051 11.8002C29.1451 11.8002 29.2151 12.1036 29.2151 12.7102C29.2151 13.2702 28.6551 14.3202 27.5351 15.8602C26.4151 17.3536 24.9917 18.8936 23.2651 20.4802C21.5384 22.0669 19.4151 23.4436 16.8951 24.6102C14.3751 25.7769 11.9251 26.3602 9.54508 26.3602C3.61841 26.3602 0.655079 24.6336 0.655079 21.1802C0.655079 19.3136 1.58841 17.1902 3.45508 14.8102C5.27508 12.4302 7.60841 10.1902 10.4551 8.09024C13.3484 5.99024 16.7317 4.21691 20.6051 2.77024C24.5251 1.32358 28.3284 0.600242 32.0151 0.600242C36.3551 0.600242 38.5251 2.86357 38.5251 7.39024C38.5251 11.0769 37.1251 16.0702 34.3251 22.3702C31.5717 28.6702 28.8184 34.0369 26.0651 38.4702L21.9351 45.1202C22.1217 45.0269 24.3151 42.6002 28.5151 37.8402C41.8151 22.7669 49.3284 14.3669 51.0551 12.6402C51.3817 12.6402 51.8017 12.7802 52.3151 13.0602C52.8751 13.2936 53.1551 13.5502 53.1551 13.8302C53.1551 14.1102 53.0851 14.3902 52.9451 14.6702C41.7917 36.3702 36.2151 47.8969 36.2151 49.2502ZM59.489 29.6502C60.189 29.6502 60.539 30.0002 60.539 30.7002C60.539 31.4002 60.2123 32.1236 59.559 32.8702C58.9056 33.5702 58.1823 33.9202 57.389 33.9202C56.7356 33.9202 56.409 33.4769 56.409 32.5902C56.409 31.6569 56.7823 30.9336 57.529 30.4202C58.2756 29.9069 58.929 29.6502 59.489 29.6502ZM52.909 38.8902C53.1423 38.5169 53.469 38.3302 53.889 38.3302C54.309 38.3302 54.729 38.5402 55.149 38.9602C55.149 39.1469 54.8456 39.5669 54.239 40.2202C53.6323 40.8736 52.6056 42.3436 51.159 44.6302C49.7123 46.8702 48.989 48.3636 48.989 49.1102C48.989 49.5769 49.339 49.8569 50.039 49.9502C50.9723 49.9502 52.419 49.5069 54.379 48.6202C56.339 47.6869 58.0656 46.7536 59.559 45.8202L61.799 44.4202C61.8456 44.5136 61.869 44.7002 61.869 44.9802C61.869 45.2602 61.659 45.4936 61.239 45.6802C54.939 49.9736 50.5523 52.1202 48.079 52.1202C46.8656 52.1202 46.259 51.5136 46.259 50.3002C46.259 49.0869 46.9123 47.4069 48.219 45.2602C49.5723 43.0669 51.1356 40.9436 52.909 38.8902ZM69.0522 49.0402C71.2922 48.1069 73.6955 46.8469 76.2622 45.2602L77.5922 44.4202C77.6389 44.5136 77.6622 44.7002 77.6622 44.9802C77.6622 45.2602 77.4522 45.4936 77.0322 45.6802C74.5589 47.3602 72.0855 48.8302 69.6122 50.0902C67.1389 51.3502 64.8522 51.9802 62.7522 51.9802C60.0922 51.9802 58.7622 51.0236 58.7622 49.1102C58.7622 46.8236 60.3489 44.2569 63.5222 41.4102C66.7422 38.5169 69.9155 37.0702 73.0422 37.0702C74.3489 37.0702 75.0022 37.6302 75.0022 38.7502C75.0022 39.4036 74.4189 40.2202 73.2522 41.2002C71.6189 42.5536 70.5922 43.2302 70.1722 43.2302C69.7522 43.2302 69.5422 43.0436 69.5422 42.6702C69.5422 42.5302 69.6355 42.3902 69.8222 42.2502C70.2889 41.9702 70.8022 41.5502 71.3622 40.9902C71.9689 40.3836 72.2722 39.8702 72.2722 39.4502C72.2722 38.7969 71.9689 38.4702 71.3622 38.4702C70.0555 38.4702 68.1422 39.6602 65.6222 42.0402C63.1022 44.3736 61.8422 46.2636 61.8422 47.7102C61.8422 49.3436 62.7289 50.1602 64.5022 50.1602C65.6689 50.1602 66.9522 49.8802 68.3522 49.3202L69.0522 49.0402ZM76.6532 50.0902C77.0732 50.0902 79.4065 48.2469 83.6532 44.5602C87.9465 40.8269 90.4665 38.9602 91.2132 38.9602C91.9599 38.9602 92.3332 39.2869 92.3332 39.9402C92.3332 40.4536 91.8665 41.2469 90.9332 42.3202C89.9999 43.3936 89.0665 44.5602 88.1332 45.8202C87.2465 47.0802 86.8032 48.2002 86.8032 49.1802C86.8032 49.6936 87.1765 49.9502 87.9232 49.9502C88.7165 49.9502 90.0932 49.5069 92.0532 48.6202C94.0132 47.6869 95.7399 46.7536 97.2332 45.8202L99.4732 44.4202C99.5199 44.5136 99.5432 44.7002 99.5432 44.9802C99.5432 45.2602 99.3332 45.4936 98.9132 45.6802C92.6132 49.9736 88.2265 52.1202 85.7532 52.1202C84.5399 52.1202 83.9332 51.4669 83.9332 50.1602C83.9332 49.2736 84.2599 48.2002 84.9132 46.9402C85.5665 45.6802 86.2199 44.6302 86.8732 43.7902L87.7832 42.5302C85.6832 44.1169 83.5132 45.9136 81.2732 47.9202C79.0332 49.8802 77.3299 51.3502 76.1632 52.3302C74.9965 53.3569 74.1799 53.8702 73.7132 53.8702C73.2465 53.8702 73.0132 53.5202 73.0132 52.8202C73.0132 52.1669 74.1099 49.8336 76.3032 45.8202C78.4965 41.8069 81.0165 37.4902 83.8632 32.8702C86.7565 28.2036 89.7665 23.9802 92.8932 20.2002C96.0665 16.4202 98.4699 14.5302 100.103 14.5302C100.803 14.5302 101.293 14.8569 101.573 15.5102C101.713 15.7436 101.783 16.0236 101.783 16.3502C101.783 19.5702 96.9532 25.7536 87.2932 34.9002C85.4732 36.6736 83.6999 38.3069 81.9732 39.8002C78.4265 45.7736 76.6532 49.2036 76.6532 50.0902ZM99.4732 17.1202C99.4732 16.6536 99.3565 16.4202 99.1232 16.4202C98.1899 16.4202 96.2299 18.4736 93.2432 22.5802C90.2565 26.6869 87.0832 31.4702 83.7232 36.9302C94.2232 27.3636 99.4732 20.7602 99.4732 17.1202Z" fill="white"/>
</svg>
